{"title":"The Lost Bladesman 2011 XViD HC ENG SUBS DVDScr - DTRG - SAFCuk0","uid":6383370,"size":1236791040,"categoryP":"video","categoryS":"movies","magnet":"?xt=urn:btih:d63ec8586e81d058807295aa6469569a819ba9b6&amp;dn=The+Lost+Bladesman+2011+XViD+HC+ENG+SUBS+DVDScr+-+DTRG+-+SAFCuk0&amp;tr=udp%3A%2F%2Ftracker.openbittorrent.com%3A80&amp;tr=udp%3A%2F%2Fopen.demonii.com%3A1337&amp;tr=udp%3A%2F%2Ftracker.coppersurfer.tk%3A6969&amp;tr=udp%3A%2F%2Fexodus.desync.com%3A6969","seeders":1,"leechers":0,"uploader":"SAFCukO09","files":3,"time":1305113191,"description":"Format : AVI\nFormat/Info : Audio Video Interleave\nFile size : 1.15 GiB\nDuration : 1h 44mn\nOverall bit rate : 1 572 Kbps\nWriting library : VirtualDub build 32839/release\n\nVideo\nID : 0\nFormat : MPEG-4 Visual\nFormat profile : Advanced Simple@L5\nFormat settings, BVOP : Yes\nFormat settings, QPel : No\nFormat settings, GMC : No warppoints\nFormat settings, Matrix : Custom\nCodec ID : XVID\nCodec ID/Hint : XviD\nDuration : 1h 44mn\nBit rate : 1 369 Kbps\nWidth : 720 pixels\nHeight : 316 pixels\nDisplay aspect ratio : 2.25:1\nFrame rate : 29.970 fps\nColor space : YUV\nChroma subsampling : 4:2:0\nBit depth : 8 bits\nScan type : Progressive\nBits/(Pixel*Frame) : 0.201\nStream size : 1.00 GiB (87%)\nWriting library : XviD 1.2.1 (UTC 2008-12-04)\n\nAudio\nID : 1\nFormat : AC-3\nFormat/Info : Audio Coding 3\nMode extension : CM (complete main)\nCodec ID : 2000\nDuration : 1h 44mn\nBit rate mode : Constant\nBit rate : 192 Kbps\nChannel(s) : 2 channels\nChannel positions : Front: L R\nSampling rate : 48.0 KHz\nBit depth : 16 bits\nStream size : 144 MiB (12%)\nAlignment : Aligned on interleaves\nInterleave, duration : 33 ms (1.00 video frame)\nInterleave, preload duration : 512 ms\n\n\n\n &lt;a href=&quot;\nhttp://www.imdb.com/title/tt1648093/&quot; rel=&quot;nofollow&quot; target=&quot;_NEW&quot;&gt;\nhttp://www.imdb.com/title/tt1648093/&lt;/a&gt;\n\n\n\n\n89524873606771859129.png\n\n\nUsers: 5.9/10 (130 votes) 5 reviews | Critics: 10 reviews\n\nA tyrant forces the greatest warrior in the land to battle his greatest friend by holding the woman they both love hostage.\nDirectors:\nFelix Chong, Alan Mak\nWriters:\nFelix Chong, Alan Mak\nStars:\nYu Ai Lei, Hong Chen and Siu-hou Chin\n\n\n\n95521316153253938506.png\n\n\n\n\nvlcsnap2011051018h39m24.png\n\nvlcsnap2011051018h40m08.png\n\nvlcsnap2011051018h38m44.png\n\nNo idea on the source but thanks whoever you are ..\n\nHardcoded english subs over the top of Chinese/cantonese subs ............\n\nNot sure how many will want but what the heck\n\n\n\n\n\n\n\nGreetz to Imagine ,Flawl3ss,DiLLoN,BDK,NOiR,TOXiCiNK,THC,Ez,Rx,Boobyblue,TaRiQ786,LKRG","torrent":{"xt":"urn:btih:d63ec8586e81d058807295aa6469569a819ba9b6","amp;dn":"The+Lost+Bladesman+2011+XViD+HC+ENG+SUBS+DVDScr+-+DTRG+-+SAFCuk0","amp;tr":["udp%3A%2F%2Ftracker.openbittorrent.com%3A80","udp%3A%2F%2Fopen.demonii.com%3A1337","udp%3A%2F%2Ftracker.coppersurfer.tk%3A6969","udp%3A%2F%2Fexodus.desync.com%3A6969"],"infoHash":"d63ec8586e81d058807295aa6469569a819ba9b6","infoHashBuffer":{"type":"Buffer","data":[214,62,200,88,110,129,208,88,128,114,149,170,100,105,86,154,129,155,169,182]},"announce":[],"urlList":[]}}